<svg class="icon" style="width: 1em;height: 1em;vertical-align: middle;fill: currentColor;overflow: hidden;"
  viewBox="0 0 1024 1024" version="1.1" xmlns="http://www.w3.org/2000/svg" p-id="1925">
  <path
    d="M409.6 798.72H261.12c-41.984 0-76.8-34.816-76.8-76.8v-419.84c0-41.984 34.816-76.8 76.8-76.8H419.84c54.272 0 99.328 39.936 106.496 92.16h236.544c41.984 0 76.8 34.816 76.8 76.8V542.72c0 8.192-7.168 15.36-15.36 15.36S808.96 550.912 808.96 542.72V394.24c0-25.6-20.48-46.08-46.08-46.08h-266.24v-15.36c0-41.984-34.816-76.8-76.8-76.8H261.12C235.52 256 215.04 276.48 215.04 302.08v419.84c0 25.6 20.48 46.08 46.08 46.08H409.6c8.192 0 15.36 7.168 15.36 15.36S417.792 798.72 409.6 798.72z"
    fill="#606060" p-id="1926"></path>
  <path
    d="M624.64 563.2H481.28c-6.144 0-10.24-4.096-10.24-10.24s4.096-10.24 10.24-10.24h143.36c6.144 0 10.24 4.096 10.24 10.24s-4.096 10.24-10.24 10.24zM829.44 645.12H481.28c-6.144 0-10.24-4.096-10.24-10.24s4.096-10.24 10.24-10.24h348.16c6.144 0 10.24 4.096 10.24 10.24s-4.096 10.24-10.24 10.24zM829.44 727.04H481.28c-6.144 0-10.24-4.096-10.24-10.24s4.096-10.24 10.24-10.24h348.16c6.144 0 10.24 4.096 10.24 10.24s-4.096 10.24-10.24 10.24z"
    fill="#606060" p-id="1927"></path>
</svg>